<?xml version="1.0" encoding="UTF-8" standalone="no"?>
<!-- Created with Inkscape (http://www.inkscape.org/) -->

<svg
   width="1080"
   height="1080"
   viewBox="0 0 285.74999 285.75"
   version="1.1"
   id="svg1"
   xml:space="preserve"
   inkscape:version="1.3.2 (091e20e, 2023-11-25)"
   sodipodi:docname="regen-logo-2.svg"
   xmlns:inkscape="http://www.inkscape.org/namespaces/inkscape"
   xmlns:sodipodi="http://sodipodi.sourceforge.net/DTD/sodipodi-0.dtd"
   xmlns="http://www.w3.org/2000/svg"
   xmlns:svg="http://www.w3.org/2000/svg"><sodipodi:namedview
     id="namedview1"
     pagecolor="#ffffff"
     bordercolor="#999999"
     borderopacity="1"
     inkscape:showpageshadow="2"
     inkscape:pageopacity="0"
     inkscape:pagecheckerboard="0"
     inkscape:deskcolor="#d1d1d1"
     inkscape:document-units="mm"
     showguides="true"
     inkscape:zoom="0.34504433"
     inkscape:cx="718.74822"
     inkscape:cy="469.50489"
     inkscape:window-width="1440"
     inkscape:window-height="841"
     inkscape:window-x="-1"
     inkscape:window-y="31"
     inkscape:window-maximized="0"
     inkscape:current-layer="layer1" /><defs
     id="defs1"><inkscape:path-effect
       effect="fillet_chamfer"
       id="path-effect1"
       is_visible="true"
       lpeversion="1"
       nodesatellites_param="F,0,0,1,0,0,0,1 @ F,0,0,1,0,0,0,1 @ F,0,0,1,0,0,0,1 @ F,0,0,1,0,0,0,1 @ F,0,0,1,0,0,0,1 @ F,0,0,1,0,0,0,1 @ F,0,0,1,0,0,0,1 @ F,0,0,1,0,0,0,1"
       radius="0"
       unit="px"
       method="auto"
       mode="F"
       chamfer_steps="1"
       flexible="false"
       use_knot_distance="true"
       apply_no_radius="true"
       apply_with_radius="true"
       only_selected="false"
       hide_knots="false" /></defs><g
     inkscape:label="Layer 1"
     inkscape:groupmode="layer"
     id="layer1"><g
       inkscape:groupmode="layer"
       id="layer2"
       inkscape:label="Layer 2" /><path
       style="fill:#f6f3ee;stroke-width:2.0738;fill-opacity:1"
       d="m 73.60847,201.81037 c -18.331459,-3.31158 -33.872888,-15.1657 -42.5817,-32.4789 -4.200302,-8.35023 -5.938928,-14.92304 -6.416204,-24.25621 -0.334244,-6.53618 0.709079,-14.7965 2.57571,-20.39279 C 34.188287,103.69 52.691979,87.660773 74.28936,83.878395 c 14.56098,-2.550082 29.59132,0.996522 43.13328,10.177846 3.39118,2.299199 17.28815,14.499919 17.28815,15.177989 0,0.14248 -2.57889,4.38588 -5.73085,9.42966 -6.86201,10.98058 -7.08225,11.48405 -6.18932,14.14973 0.89271,2.66493 2.99044,4.12513 6.39636,4.4524 5.85363,0.56245 10.74157,-2.33736 14.57397,-8.64616 1.83133,-3.01468 2.13752,-3.26235 4.46467,-3.61133 2.45997,-0.3689 2.5464,-0.3287 5.60286,2.60558 3.51594,3.3754 9.92802,9.05203 17.7738,15.73521 2.93792,2.50258 5.83915,5.18257 6.44714,5.95549 1.50965,1.91919 1.41336,4.29149 -0.24135,5.94618 -2.29868,2.29867 -4.02437,1.83472 -9.27679,-2.49406 -4.73604,-3.90317 -6.01891,-4.49116 -6.58429,-3.01781 -0.52177,1.35971 0.0606,2.02776 5.26166,6.03563 5.69062,4.38512 6.2127,5.03159 5.70309,7.06203 -0.55804,2.22344 -2.27059,3.63747 -4.40539,3.63747 -1.51261,0 -2.83151,-0.78551 -6.90965,-4.1152 -2.7721,-2.26337 -5.25545,-4.11518 -5.51858,-4.11518 -0.26312,0 -0.73352,0.47666 -1.04531,1.05928 -0.67741,1.26571 -0.51089,1.45775 4.55308,5.25067 2.01454,1.50891 3.81172,3.29901 3.99369,3.97801 0.49249,1.83766 -0.19307,3.86253 -1.55455,4.59114 -2.38819,1.27813 -4.24236,0.68259 -8.74769,-2.80968 -4.11149,-3.18699 -5.85666,-3.83713 -6.34697,-2.36444 -0.23776,0.71413 0.57579,1.58214 4.42895,4.7255 1.96671,1.60441 2.5557,2.44878 2.5557,3.66384 0,1.81517 -2.17228,3.85336 -4.10686,3.85336 -1.49409,0 -5.31097,-2.69747 -6.67906,-4.72025 -0.55603,-0.8221 -1.97811,-2.50376 -3.16015,-3.73699 -1.83405,-1.91347 -2.15594,-2.61065 -2.19512,-4.75455 -0.0551,-3.01323 -2.29443,-6.35382 -4.59661,-6.85705 -2.61537,-0.57168 -2.85597,-0.72695 -2.85597,-1.843 0,-2.28039 -1.81503,-4.95798 -4.11585,-6.07179 -2.72633,-1.31979 -3.5386,-1.35241 -6.18116,-0.24828 -1.5635,0.65327 -2.08365,0.69203 -2.25822,0.16839 -0.44736,-1.3421 -2.81083,-3.23987 -4.4409,-3.56587 -3.50529,-0.70107 -7.695,-10.13915 -7.695,-17.33438 0,-4.90491 -0.68568,-6.04125 -7.51047,-12.44655 -5.96814,-5.60128 -7.17034,-6.07877 -15.30458,-6.07877 -12.30747,0 -22.521108,7.82001 -26.604788,20.3698 -2.796039,8.59264 -1.244776,19.94533 3.782772,27.68379 5.874506,9.04211 16.111626,13.74364 26.821976,12.31835 6.03908,-0.80365 6.25507,-0.90224 11.61121,-5.30047 6.67993,-5.48528 6.07977,-5.17056 8.43843,-4.425 1.89242,0.59819 2.0576,0.81428 2.0576,2.69184 0,2.78523 2.58762,5.72724 5.73426,6.51956 2.04611,0.51523 2.4409,0.88308 3.41036,3.17772 1.23675,2.92731 3.62477,4.45354 6.96823,4.45354 1.42536,0 2.12265,0.31258 2.57254,1.1532 0.52266,0.97657 0.37854,1.40587 -0.9409,2.80282 -2.45517,2.5994 -10.14802,8.46375 -14.26435,10.87388 -11.30943,6.62171 -25.74016,9.14707 -38.79394,6.78892 z m 118.96171,0.10908 c -9.06972,-1.72588 -14.61707,-3.99822 -22.63858,-9.27333 -4.8632,-3.19815 -14.16063,-11.03458 -14.04962,-11.84189 0.4676,-3.401 0.82558,-3.7731 3.87298,-4.02582 3.69136,-0.30611 5.72076,-1.71631 6.66411,-4.63077 0.63983,-1.97669 0.95961,-2.24949 3.35766,-2.86408 3.6924,-0.94633 5.61931,-3.08386 5.95805,-6.60931 0.4234,-4.40641 1.59652,-4.29127 6.64164,0.65187 8.61236,8.43831 11.38465,9.82982 19.74614,9.91139 13.84195,0.135 24.48022,-8.40166 28.09806,-22.54726 2.01633,-7.88383 1.09984,-15.07899 -2.90881,-22.83631 -4.87137,-9.42675 -13.95143,-15.12708 -24.12467,-15.1451 -5.01645,-0.008 -9.11651,0.93559 -11.41235,2.62889 -3.02752,2.23297 -10.45716,9.56936 -11.22273,11.0819 -0.38187,0.75447 -0.84785,2.54536 -1.03549,3.97978 -0.50258,3.84162 -4.22998,10.28622 -5.94933,10.28622 -0.30352,0 -5.33389,-4.32422 -11.17862,-9.60936 l -10.62674,-9.60935 -3.17578,0.35489 c -1.74671,0.19514 -3.53822,0.54698 -3.98116,0.78178 -0.44294,0.23479 -1.94163,2.11537 -3.3304,4.17908 -4.29491,6.38211 -9.04907,8.90696 -13.37105,7.10113 -3.00411,-1.2552 -2.98864,-2.52763 0.0927,-7.63626 6.77401,-11.2304 9.14492,-14.99888 10.11778,-16.08176 1.57256,-1.75036 4.46738,-2.80138 11.05843,-4.01501 5.69476,-1.04858 6.09001,-1.21232 8.97908,-3.71977 9.2472,-8.025821 14.22131,-11.345142 22.14956,-14.780891 7.47992,-3.241459 12.84301,-4.270441 22.17313,-4.254225 10.22715,0.01784 15.471,1.185997 24.14246,5.378437 12.59954,6.091572 22.03414,15.245379 28.3833,27.538509 4.94587,9.57616 6.99197,20.58072 5.92677,31.8763 -0.73855,7.83147 -2.17496,12.88058 -5.74824,20.20546 -8.09198,16.58775 -21.92754,28.08859 -39.26134,32.63609 -5.87986,1.54258 -17.57224,1.98768 -23.34705,0.88877 z m -61.4849,-20.91391 c -1.58804,-1.58804 -1.43654,-2.76443 0.72794,-5.65249 1.9535,-2.60656 3.68406,-3.28371 5.54058,-2.16797 3.22368,1.93738 2.78856,5.32769 -1.02248,7.96677 -2.29998,1.59269 -3.54167,1.55806 -5.24604,-0.14621 z m -9.54311,-5.20345 c -1.97176,-1.97176 -1.41555,-3.61687 2.80642,-8.30021 2.1471,-2.38171 4.46617,-4.47154 5.15349,-4.64404 1.46356,-0.36733 4.37734,0.99103 4.86789,2.26933 0.80446,2.09645 0.22886,3.5293 -2.77273,6.90202 -1.71244,1.92421 -3.50257,3.79934 -3.97801,4.16696 -1.39274,1.07688 -4.82891,0.85408 -6.07706,-0.39406 z m -8.52967,-7.38241 c -2.22252,-2.22253 -1.77683,-3.62093 2.78319,-8.7324 2.27146,-2.54617 4.51386,-4.77675 4.9831,-4.95679 1.7715,-0.67979 3.89387,-0.29548 5.00974,0.90716 2.42893,2.61781 1.91713,4.12208 -3.22459,9.47781 -3.89015,4.05208 -4.70593,4.65103 -6.33489,4.65103 -1.25358,0 -2.31357,-0.44383 -3.21655,-1.34681 z m -5.0719,-8.08267 c -3.41801,-0.92706 -3.70412,-4.74046 -0.57497,-7.66355 2.03934,-1.90503 4.85343,-2.10656 6.49487,-0.46513 1.56795,1.56798 1.35819,3.50561 -0.62394,5.76315 -2.25312,2.56615 -3.12331,2.95483 -5.29596,2.36553 z"
       id="path1"
       sodipodi:nodetypes="cssssssssssssssssssssssssscssssssscssssccssssssssssssssscccscsssssssscsscscccscscsscscssssscccsssccssssssssscsssssssss" /></g></svg>
