<?xml version="1.0" encoding="UTF-8" standalone="no"?>
<!-- Created with Inkscape (http://www.inkscape.org/) -->

<svg
   width="1080"
   height="1080"
   viewBox="0 0 285.74999 285.75"
   version="1.1"
   id="svg1"
   xml:space="preserve"
   inkscape:version="1.3.2 (091e20e, 2023-11-25)"
   sodipodi:docname="regen-logo.svg"
   xmlns:inkscape="http://www.inkscape.org/namespaces/inkscape"
   xmlns:sodipodi="http://sodipodi.sourceforge.net/DTD/sodipodi-0.dtd"
   xmlns="http://www.w3.org/2000/svg"
   xmlns:svg="http://www.w3.org/2000/svg"><sodipodi:namedview
     id="namedview1"
     pagecolor="#ffffff"
     bordercolor="#999999"
     borderopacity="1"
     inkscape:showpageshadow="2"
     inkscape:pageopacity="0"
     inkscape:pagecheckerboard="0"
     inkscape:deskcolor="#d1d1d1"
     inkscape:document-units="mm"
     showguides="true"
     inkscape:zoom="0.40113768"
     inkscape:cx="498.58194"
     inkscape:cy="540.9614"
     inkscape:window-width="1440"
     inkscape:window-height="841"
     inkscape:window-x="0"
     inkscape:window-y="31"
     inkscape:window-maximized="0"
     inkscape:current-layer="layer1" /><defs
     id="defs1" /><g
     inkscape:label="Layer 1"
     inkscape:groupmode="layer"
     id="layer1"><path
       style="fill:#000000;stroke-width:2.48552"
       d="M 59.856732,213.51102 C 37.885866,209.54198 19.25894,195.33442 8.8211361,174.58397 3.7869321,164.57594 1.7031311,156.6982 1.131099,145.51208 0.73049605,137.67826 1.9809541,127.77798 4.2181741,121.07064 12.61032,95.910463 34.787618,76.698891 60.672801,72.165583 c 17.451826,-3.056359 35.466197,1.194365 51.696689,12.198492 4.06444,2.755667 20.72043,17.378645 20.72043,18.191335 0,0.17076 -3.09089,5.25662 -6.86862,11.30176 -8.22435,13.16059 -8.48831,13.76402 -7.4181,16.95893 1.06994,3.19401 3.58414,4.94411 7.66625,5.33635 7.01577,0.67412 12.87413,-2.8014 17.46739,-10.36271 2.19491,-3.6132 2.56189,-3.91004 5.35106,-4.3283 2.94835,-0.44215 3.05194,-0.39396 6.71522,3.12287 4.21397,4.04553 11.89906,10.84916 21.30249,18.85918 3.5212,2.99942 6.99842,6.21148 7.72712,7.13785 1.80936,2.30022 1.69395,5.1435 -0.28927,7.1267 -2.75504,2.75504 -4.82334,2.19898 -11.11855,-2.98921 -5.6763,-4.67809 -7.21386,-5.38281 -7.89149,-3.61695 -0.62536,1.62966 0.0726,2.43034 6.30628,7.2339 6.8204,5.25572 7.44613,6.03053 6.83534,8.46408 -0.66883,2.66487 -2.72137,4.35964 -5.28001,4.35964 -1.81291,0 -3.39365,-0.94146 -8.28144,-4.93221 -3.32246,-2.71272 -6.29884,-4.93218 -6.61421,-4.93218 -0.31536,0 -0.87915,0.57129 -1.25284,1.26958 -0.8119,1.517 -0.61231,1.74716 5.45702,6.2931 2.4145,1.80848 4.56848,3.95398 4.78658,4.76779 0.59026,2.20249 -0.2314,4.62937 -1.86319,5.50263 -2.86232,1.53188 -5.0846,0.81811 -10.4844,-3.3675 -4.92776,-3.81971 -7.0194,-4.59892 -7.60705,-2.83386 -0.28496,0.85591 0.6901,1.89625 5.30824,5.66367 2.35717,1.92294 3.0631,2.93495 3.0631,4.39124 0,2.17554 -2.60355,4.61838 -4.92221,4.61838 -1.79072,0 -6.36538,-3.23301 -8.00508,-5.65738 -0.66642,-0.98531 -2.37083,-3.00084 -3.78755,-4.4789 -2.19817,-2.29336 -2.58397,-3.12896 -2.63092,-5.69849 -0.0661,-3.61146 -2.74995,-7.61527 -5.5092,-8.21841 -3.1346,-0.68518 -3.42297,-0.87127 -3.42297,-2.2089 0,-2.73312 -2.17538,-5.9423 -4.93299,-7.27724 -3.2676,-1.58181 -4.24113,-1.62091 -7.40833,-0.29757 -1.8739,0.78296 -2.49732,0.82942 -2.70655,0.20182 -0.53617,-1.60855 -3.36887,-3.88309 -5.32256,-4.27382 -4.20121,-0.84025 -9.222726,-12.15211 -9.222726,-20.77583 0,-5.87871 -0.821811,-7.24065 -9.001544,-14.91761 -7.153015,-6.71333 -8.593893,-7.28562 -18.343056,-7.28562 -14.750915,0 -26.992304,9.37255 -31.886732,24.4139 -3.351146,10.29856 -1.491906,23.90515 4.53378,33.17995 7.040795,10.83727 19.31032,16.47221 32.14704,14.76396 7.238046,-0.96321 7.496912,-1.08137 13.916427,-6.3528 8.00612,-6.57429 7.286811,-6.19709 10.113738,-5.3035 2.268133,0.71695 2.466103,0.97594 2.466103,3.22625 0,3.3382 3.10135,6.8643 6.8727,7.81392 2.45233,0.61752 2.9255,1.0584 4.08743,3.8086 1.48229,3.50848 4.34441,5.33772 8.35166,5.33772 1.70834,0 2.54407,0.37464 3.08328,1.38215 0.62643,1.17045 0.45369,1.68498 -1.1277,3.35927 -2.94261,3.11547 -12.16275,10.14409 -17.0963,13.03271 -13.554737,7.93635 -30.850446,10.96308 -46.495848,8.13675 z m 142.579608,0.13074 c -10.87036,-2.06852 -17.51904,-4.792 -27.13309,-11.1144 -5.82871,-3.83309 -16.97199,-13.22531 -16.83895,-14.1929 0.56044,-4.07622 0.98949,-4.52219 4.6419,-4.82508 4.42422,-0.36689 6.85652,-2.05706 7.98716,-5.55013 0.76686,-2.36914 1.15012,-2.69609 4.02427,-3.4327 4.42546,-1.13421 6.73493,-3.69611 7.14092,-7.92148 0.50746,-5.28123 1.91349,-5.14323 7.96023,0.78129 10.3222,10.11359 13.64489,11.78137 23.66641,11.87913 16.59005,0.1618 29.34037,-10.06967 33.67648,-27.02365 2.41664,-9.44904 1.31819,-18.07268 -3.48631,-27.37008 -5.8385,-11.29828 -16.72126,-18.13032 -28.91423,-18.15192 -6.01239,-0.01 -10.92645,1.12134 -13.67809,3.15082 -3.62858,2.67628 -12.53326,11.46919 -13.45082,13.28202 -0.45768,0.90426 -1.01617,3.0507 -1.24106,4.7699 -0.60237,4.60432 -5.06978,12.32839 -7.13048,12.32839 -0.36378,0 -6.39284,-5.18273 -13.39795,-11.51714 l -12.7365,-11.51713 -3.80629,0.42534 c -2.09348,0.23389 -4.24067,0.65558 -4.77155,0.93699 -0.53088,0.28141 -2.32711,2.53535 -3.99159,5.00877 -5.1476,7.64917 -10.84562,10.67529 -16.02566,8.51095 -3.60052,-1.50441 -3.58198,-3.02945 0.1111,-9.15232 8.11889,-13.46001 10.9605,-17.97666 12.12651,-19.27453 1.88476,-2.09787 5.3543,-3.35755 13.25389,-4.812129 6.82537,-1.25675 7.29909,-1.453 10.76173,-4.458265 11.08309,-9.619218 17.04473,-13.597535 26.547,-17.715396 8.96494,-3.884998 15.39278,-5.118268 26.57524,-5.098832 12.25759,0.02138 18.54252,1.421457 28.93555,6.446238 15.10098,7.300954 26.40866,18.272094 34.01834,33.005834 5.9278,11.47734 8.38011,24.66668 7.10343,38.20481 -0.88517,9.38628 -2.60676,15.43781 -6.88945,24.21693 -9.69851,19.88097 -26.2809,33.66512 -47.05604,39.11545 -7.04721,1.84883 -21.06092,2.3823 -27.98223,1.06522 z m -73.69172,-25.06603 c -1.90331,-1.90331 -1.72174,-3.31326 0.87246,-6.77469 2.34134,-3.12405 4.41547,-3.93564 6.64058,-2.59839 3.86369,2.32202 3.34218,6.38542 -1.22548,9.54844 -2.75661,1.9089 -4.24481,1.86739 -6.28756,-0.17523 z m -11.43773,-6.2365 c -2.36323,-2.36323 -1.69659,-4.33494 3.36358,-9.94808 2.57338,-2.85457 5.35286,-5.3593 6.17663,-5.56604 1.75413,-0.44026 5.2464,1.18778 5.83433,2.71987 0.96418,2.51266 0.2743,4.22998 -3.32321,8.2723 -2.05241,2.30623 -4.19794,4.55364 -4.76777,4.99424 -1.66925,1.29068 -5.78762,1.02364 -7.28356,-0.47229 z m -10.2231,-8.84807 c -2.66377,-2.66378 -2.12959,-4.33981 3.33574,-10.46608 2.72243,-3.05167 5.41002,-5.72509 5.97242,-5.94088 2.1232,-0.81475 4.66693,-0.35414 6.00434,1.08726 2.91116,3.13754 2.29775,4.94046 -3.86478,11.35948 -4.66248,4.85655 -5.64021,5.57442 -7.59258,5.57442 -1.50245,0 -2.77289,-0.53195 -3.85514,-1.6142 z m -6.07885,-9.68735 c -4.0966,-1.11112 -4.439502,-5.68161 -0.68911,-9.18502 2.44421,-2.28325 5.817,-2.52479 7.78431,-0.55748 1.87925,1.87928 1.62784,4.20159 -0.74781,6.90733 -2.70044,3.07562 -3.74339,3.54146 -6.34739,2.83517 z"
       id="path1"
       sodipodi:nodetypes="cssssssssssssssssssssssssscssssssscssssccssssssssssssssscccscsssssssscsscscccscscsscscssssscccsssccssssssssscsssssssss" /></g></svg>
